<svg width="16" height="17" viewBox="0 0 16 17" fill="none" xmlns="http://www.w3.org/2000/svg">
<g id="X svg" clip-path="url(#clip0_4562_28146)">
<g id="Group">
<path id="Path 3" fill-rule="evenodd" clip-rule="evenodd" d="M1.02595 8.10656C5.03209 6.36116 7.70348 5.21048 9.04011 4.65452C12.8565 3.06717 13.6495 2.79143 14.1663 2.78232C14.28 2.78032 14.5342 2.80849 14.6989 2.9421C14.8379 3.05491 14.8761 3.2073 14.8944 3.31425C14.9127 3.42121 14.9355 3.66486 14.9174 3.85524C14.7106 6.0282 13.8157 11.3014 13.3605 13.7352C13.1679 14.765 12.7886 15.1103 12.4213 15.1441C11.6233 15.2175 11.0173 14.6167 10.2444 14.11C9.03488 13.3172 8.35159 12.8236 7.17757 12.05C5.82078 11.1559 6.70033 10.6645 7.47356 9.86135C7.67592 9.65117 11.1921 6.45295 11.2601 6.16282C11.2687 6.12653 11.2765 5.99128 11.1962 5.91986C11.1158 5.84844 10.9973 5.87286 10.9117 5.89229C10.7904 5.91982 8.85818 7.19692 5.11512 9.72359C4.56668 10.1002 4.06991 10.2837 3.62483 10.2741C3.13416 10.2635 2.19031 9.99663 1.48866 9.76856C0.628049 9.48881 -0.055945 9.3409 0.00361549 8.8658C0.0346383 8.61834 0.375417 8.36526 1.02595 8.10656Z" fill="#4A465B"/>
</g>
</g>
<defs>
<clipPath id="clip0_4562_28146">
<rect width="16" height="16" fill="white" transform="translate(0 0.96582)"/>
</clipPath>
</defs>
</svg>
